<?xml version="1.0" encoding="UTF-8"?>
<svg xmlns="http://www.w3.org/2000/svg" xmlns:xlink="http://www.w3.org/1999/xlink" width="33px" height="32px" viewBox="0 0 33 32" version="1.1">
<g id="surface1">
<path style=" stroke:none;fill-rule:nonzero;fill:rgb(99.607843%,99.607843%,99.607843%);fill-opacity:1;" d="M 0 0 C 10.890625 0 21.78125 0 33 0 C 33 10.558594 33 21.121094 33 32 C 22.109375 32 11.21875 32 0 32 C 0 21.441406 0 10.878906 0 0 Z M 0 0 "/>
<path style=" stroke:none;fill-rule:nonzero;fill:rgb(70.980392%,70.588235%,99.607843%);fill-opacity:1;" d="M 21.195312 7.269531 C 21.351562 7.347656 21.480469 7.398438 21.648438 7.429688 C 21.648438 7.476562 21.648438 7.519531 21.648438 7.566406 C 21.78125 7.636719 21.890625 7.695312 22.039062 7.71875 C 22.207031 7.777344 22.28125 7.871094 22.398438 8 C 22.535156 8.128906 22.679688 8.230469 22.832031 8.335938 C 23.527344 8.820312 23.527344 8.820312 23.695312 9.171875 C 23.734375 9.1875 23.769531 9.207031 23.808594 9.222656 C 24.011719 9.335938 24.121094 9.484375 24.261719 9.664062 C 24.339844 9.761719 24.339844 9.761719 24.417969 9.859375 C 24.527344 10.007812 24.601562 10.144531 24.683594 10.308594 C 24.714844 10.339844 24.746094 10.371094 24.78125 10.40625 C 24.910156 10.539062 24.976562 10.679688 25.058594 10.847656 C 25.089844 10.90625 25.117188 10.96875 25.148438 11.027344 C 25.210938 11.179688 25.210938 11.179688 25.210938 11.3125 C 25.277344 11.335938 25.34375 11.359375 25.410156 11.378906 C 25.480469 11.515625 25.480469 11.515625 25.542969 11.691406 C 25.613281 11.886719 25.6875 12.082031 25.769531 12.273438 C 26.796875 14.722656 26.65625 17.355469 25.738281 19.816406 C 25.363281 20.699219 24.855469 21.570312 24.222656 22.292969 C 23.984375 22.191406 23.832031 22.046875 23.648438 21.859375 C 23.589844 21.800781 23.527344 21.738281 23.464844 21.675781 C 23.398438 21.605469 23.332031 21.539062 23.269531 21.472656 C 23.199219 21.402344 23.132812 21.335938 23.066406 21.265625 C 22.886719 21.085938 22.710938 20.902344 22.53125 20.722656 C 22.351562 20.539062 22.167969 20.351562 21.988281 20.167969 C 21.632812 19.804688 21.277344 19.441406 20.921875 19.078125 C 21.003906 18.867188 21.089844 18.675781 21.207031 18.480469 C 21.863281 17.304688 21.996094 15.765625 21.648438 14.460938 C 21.59375 14.316406 21.53125 14.183594 21.453125 14.050781 C 21.378906 13.914062 21.324219 13.777344 21.265625 13.632812 C 21.097656 13.242188 20.867188 12.804688 20.523438 12.554688 C 20.394531 12.453125 20.394531 12.453125 20.308594 12.292969 C 20.152344 12.050781 19.957031 11.929688 19.722656 11.777344 C 19.679688 11.75 19.636719 11.722656 19.59375 11.691406 C 19.300781 11.496094 18.996094 11.335938 18.679688 11.179688 C 18.679688 11.136719 18.679688 11.089844 18.679688 11.046875 C 18.609375 11.035156 18.542969 11.027344 18.472656 11.015625 C 18.320312 10.996094 18.164062 10.96875 18.011719 10.941406 C 17.558594 10.867188 17.121094 10.832031 16.664062 10.832031 C 16.617188 10.832031 16.566406 10.832031 16.515625 10.832031 C 16.238281 10.835938 15.980469 10.863281 15.707031 10.914062 C 15.53125 10.917969 15.355469 10.914062 15.179688 10.914062 C 15.179688 10.957031 15.179688 11 15.179688 11.046875 C 15 11.125 14.824219 11.1875 14.632812 11.238281 C 14.214844 11.367188 13.894531 11.527344 13.597656 11.847656 C 13.464844 11.9375 13.332031 12.027344 13.199219 12.117188 C 13.179688 12.160156 13.15625 12.207031 13.132812 12.25 C 13.089844 12.25 13.046875 12.25 13.003906 12.25 C 12.96875 12.351562 12.96875 12.351562 12.9375 12.453125 C 12.824219 12.5625 12.714844 12.675781 12.605469 12.785156 C 12.355469 13.113281 12.203125 13.484375 12.035156 13.863281 C 11.945312 14.058594 11.945312 14.058594 11.8125 14.257812 C 11.441406 15.648438 11.515625 17.070312 12.140625 18.359375 C 12.160156 18.40625 12.183594 18.453125 12.207031 18.5 C 12.339844 18.765625 12.488281 18.984375 12.671875 19.214844 C 12.671875 19.257812 12.671875 19.300781 12.671875 19.347656 C 12.738281 19.371094 12.800781 19.390625 12.871094 19.414062 C 12.964844 19.519531 12.964844 19.519531 13.066406 19.652344 C 13.777344 20.496094 14.898438 21 15.972656 21.15625 C 17.183594 21.226562 18.386719 21.117188 19.417969 20.40625 C 19.601562 20.285156 19.601562 20.285156 19.800781 20.285156 C 19.898438 20.382812 19.898438 20.382812 20.007812 20.519531 C 20.226562 20.785156 20.460938 21.007812 20.71875 21.234375 C 21 21.484375 21.242188 21.757812 21.484375 22.046875 C 21.667969 22.257812 21.859375 22.449219 22.078125 22.628906 C 22.390625 22.882812 22.648438 23.179688 22.902344 23.496094 C 22.601562 24.253906 21.273438 24.785156 20.570312 25.09375 C 18.105469 26.136719 15.425781 26.207031 12.9375 25.171875 C 11.726562 24.640625 10.722656 23.875 9.769531 22.960938 C 9.71875 22.914062 9.667969 22.871094 9.617188 22.820312 C 9.265625 22.480469 8.988281 22.097656 8.710938 21.691406 C 8.652344 21.605469 8.652344 21.605469 8.59375 21.515625 C 8.253906 20.996094 7.984375 20.445312 7.722656 19.882812 C 7.699219 19.835938 7.679688 19.792969 7.65625 19.746094 C 7.457031 19.324219 7.351562 18.890625 7.246094 18.433594 C 7.230469 18.363281 7.214844 18.289062 7.195312 18.214844 C 7.070312 17.675781 6.984375 17.160156 6.984375 16.605469 C 6.980469 16.554688 6.980469 16.503906 6.980469 16.453125 C 6.980469 16.347656 6.980469 16.242188 6.980469 16.136719 C 6.980469 15.976562 6.976562 15.820312 6.976562 15.660156 C 6.972656 15.136719 6.996094 14.632812 7.082031 14.113281 C 7.089844 14.070312 7.097656 14.023438 7.105469 13.976562 C 7.160156 13.699219 7.242188 13.441406 7.34375 13.175781 C 7.445312 12.914062 7.515625 12.640625 7.59375 12.367188 C 7.65625 12.183594 7.65625 12.183594 7.789062 12.050781 C 7.832031 11.9375 7.875 11.828125 7.921875 11.714844 C 8.230469 11.046875 8.582031 10.347656 9.042969 9.773438 C 9.085938 9.773438 9.128906 9.773438 9.175781 9.773438 C 9.191406 9.738281 9.207031 9.699219 9.222656 9.660156 C 9.492188 9.15625 10.078125 8.488281 10.625 8.300781 C 10.667969 8.257812 10.707031 8.214844 10.75 8.171875 C 10.890625 8.035156 10.890625 8.035156 11.042969 7.976562 C 11.214844 7.902344 11.300781 7.832031 11.4375 7.707031 C 11.675781 7.492188 11.921875 7.363281 12.210938 7.230469 C 12.265625 7.203125 12.320312 7.179688 12.375 7.152344 C 13.609375 6.566406 13.609375 6.566406 14.074219 6.519531 C 14.28125 6.5 14.410156 6.46875 14.597656 6.398438 C 16.6875 5.648438 19.292969 6.246094 21.195312 7.269531 Z M 21.195312 7.269531 "/>
<path style=" stroke:none;fill-rule:nonzero;fill:rgb(70.588235%,70.196078%,99.607843%);fill-opacity:1;" d="M 18.546875 12.921875 C 18.65625 13.019531 18.65625 13.019531 18.742188 13.121094 C 18.828125 13.191406 18.910156 13.261719 18.992188 13.332031 C 19.480469 13.765625 19.796875 14.234375 19.996094 14.863281 C 20.023438 14.933594 20.046875 15.003906 20.070312 15.078125 C 20.265625 15.894531 20.21875 16.996094 19.796875 17.726562 C 19.621094 17.996094 19.421875 18.238281 19.207031 18.476562 C 19.167969 18.519531 19.132812 18.5625 19.09375 18.605469 C 18.484375 19.199219 17.585938 19.507812 16.75 19.503906 C 16.703125 19.5 16.65625 19.5 16.605469 19.5 C 15.863281 19.484375 15.257812 19.316406 14.652344 18.878906 C 14.582031 18.832031 14.515625 18.78125 14.445312 18.730469 C 14.152344 18.472656 13.949219 18.128906 13.726562 17.808594 C 13.675781 17.742188 13.628906 17.679688 13.574219 17.609375 C 13.144531 16.816406 13.152344 15.761719 13.367188 14.898438 C 13.679688 13.945312 14.300781 13.238281 15.179688 12.785156 C 15.441406 12.695312 15.699219 12.636719 15.972656 12.585938 C 16.035156 12.574219 16.09375 12.5625 16.160156 12.550781 C 17.023438 12.421875 17.769531 12.492188 18.546875 12.921875 Z M 18.546875 12.921875 "/>
<path style=" stroke:none;fill-rule:nonzero;fill:rgb(81.176471%,81.176471%,96.862745%);fill-opacity:1;" d="M 10.429688 8.367188 C 10.472656 8.390625 10.515625 8.414062 10.558594 8.433594 C 10.125 8.878906 9.6875 9.320312 9.238281 9.773438 C 9.238281 9.441406 9.507812 9.238281 9.722656 9.007812 C 9.953125 8.789062 10.1875 8.578125 10.429688 8.367188 Z M 10.429688 8.367188 "/>
<path style=" stroke:none;fill-rule:nonzero;fill:rgb(86.666667%,87.058824%,97.254902%);fill-opacity:1;" d="M 15.773438 6.160156 C 15.773438 6.179688 15.773438 6.203125 15.773438 6.226562 C 15.703125 6.238281 15.632812 6.25 15.558594 6.265625 C 15.464844 6.28125 15.371094 6.300781 15.273438 6.316406 C 15.207031 6.332031 15.207031 6.332031 15.132812 6.34375 C 14.90625 6.386719 14.6875 6.433594 14.464844 6.507812 C 14.359375 6.535156 14.359375 6.535156 14.257812 6.5625 C 14.191406 6.515625 14.125 6.472656 14.058594 6.425781 C 14.636719 6.253906 15.167969 6.144531 15.773438 6.160156 Z M 15.773438 6.160156 "/>
<path style=" stroke:none;fill-rule:nonzero;fill:rgb(92.156863%,92.156863%,97.647059%);fill-opacity:1;" d="M 13.464844 11.847656 C 13.507812 11.871094 13.550781 11.894531 13.597656 11.917969 C 13.335938 12.179688 13.074219 12.445312 12.804688 12.71875 C 12.761719 12.699219 12.71875 12.675781 12.671875 12.652344 C 12.777344 12.515625 12.890625 12.382812 13.003906 12.25 C 13.046875 12.25 13.089844 12.25 13.132812 12.25 C 13.152344 12.210938 13.167969 12.167969 13.1875 12.125 C 13.265625 11.984375 13.265625 11.984375 13.464844 11.847656 Z M 13.464844 11.847656 "/>
<path style=" stroke:none;fill-rule:nonzero;fill:rgb(88.627451%,89.019608%,96.862745%);fill-opacity:1;" d="M 15.90625 19.414062 C 16.472656 19.414062 17.039062 19.414062 17.621094 19.414062 C 17.308594 19.574219 17.070312 19.585938 16.726562 19.601562 C 16.640625 19.609375 16.640625 19.609375 16.554688 19.617188 C 16.472656 19.621094 16.472656 19.621094 16.386719 19.625 C 16.339844 19.628906 16.289062 19.628906 16.238281 19.632812 C 16.105469 19.613281 16.105469 19.613281 15.90625 19.414062 Z M 15.90625 19.414062 "/>
<path style=" stroke:none;fill-rule:nonzero;fill:rgb(85.882353%,85.882353%,96.862745%);fill-opacity:1;" d="M 11.351562 7.566406 C 11.4375 7.585938 11.527344 7.609375 11.617188 7.632812 C 11.542969 7.699219 11.472656 7.769531 11.398438 7.835938 C 11.355469 7.875 11.316406 7.914062 11.273438 7.953125 C 11.234375 7.980469 11.195312 8.003906 11.152344 8.035156 C 11.089844 8.011719 11.023438 7.988281 10.957031 7.964844 C 11.007812 7.925781 11.0625 7.882812 11.117188 7.839844 C 11.289062 7.714844 11.289062 7.714844 11.351562 7.566406 Z M 11.351562 7.566406 "/>
</g>
</svg>
